# File created by Blade
# Date/Time:  Fri Jan 16 19:00:24 2015
# Frame Rate: 120.000 fps
#------------------------------------------------------
:FULLY-SPECIFIED
:DEGREES
3508
root 18.965661 35.929391 -19.505587 -131.572102 56.083974 -172.221454
Spine -32.721562 26.796175 -26.454188
Head -2.298127 -8.822568 1.567951
LeftShoulder -13.187939 -28.550546 15.590855
LeftArm -15.850110 -9.915720 -1.881566
LeftForeArm -10.909289 -0.000000 6.669207
LeftHand -1.965195 0.000000 4.378439
LeftHandThumb1 -26.253704 0.000000 33.147579
RightShoulder -7.388922 -11.117463 5.572395
RightArm 38.698185 7.908655 68.995264
RightForeArm -27.244868 0.000000 30.195113
RightHand -9.349959 0.000000 -6.905080
RightHandThumb1 -24.326973 -0.000000 -32.862282
LeftUpLeg -48.277137 27.981398 -33.605279
LeftLeg -6.557084 -0.000000 0.000000
LeftFoot -20.686036 43.815498 -9.435354
LeftToeBase 15.386497 -0.000000 -0.000000
RightUpLeg 12.178073 -20.360127 -6.614780
RightLeg 108.531177 -0.000000 -0.000000
RightFoot 43.172209 -41.999963 -21.190868
RightToeBase 22.519103 -0.000000 -0.000000
3509
root 18.972712 35.939827 -19.443565 -131.277775 55.967820 -172.054172
Spine -32.306555 26.717904 -26.089997
Head -2.316106 -9.495194 2.009392
LeftShoulder -13.061565 -28.440130 15.633405
LeftArm -15.212499 -10.036785 -1.996791
LeftForeArm -10.834186 -0.000000 6.502343
LeftHand -1.879049 0.000000 4.293786
LeftHandThumb1 -26.253704 0.000000 33.147579
RightShoulder -7.347632 -11.178967 5.698430
RightArm 38.738140 7.673953 69.114620
RightForeArm -27.538635 0.000000 29.870843
RightHand -9.293970 -0.000000 -6.944001
RightHandThumb1 -24.326973 -0.000000 -32.862282
LeftUpLeg -48.405659 27.868826 -33.426073
LeftLeg -6.696557 -0.000000 0.000000
LeftFoot -20.481488 43.890508 -9.348617
LeftToeBase 15.430369 -0.000000 -0.000000
RightUpLeg 12.086172 -20.346822 -6.526627
RightLeg 108.079791 -0.000000 -0.000000
RightFoot 43.032948 -41.931878 -21.177618
RightToeBase 22.505685 -0.000000 -0.000000
3510
root 18.985103 35.948572 -19.380529 -131.016180 55.843110 -171.844434
Spine -31.855330 26.683855 -25.684751
Head -2.220110 -10.189274 2.461149
LeftShoulder -12.872424 -28.314036 15.641215
LeftArm -14.578028 -10.198370 -2.068778
LeftForeArm -10.832129 -0.000000 6.290403
LeftHand -1.821374 0.000000 4.132085
LeftHandThumb1 -26.253704 0.000000 33.147579
RightShoulder -7.234153 -11.177636 5.774861
RightArm 38.554978 7.361865 69.105140
RightForeArm -27.489912 -0.000000 29.634178
RightHand -9.294681 -0.000000 -6.890732
RightHandThumb1 -24.326973 -0.000000 -32.862282
LeftUpLeg -48.496000 27.821453 -33.210490
LeftLeg -6.814811 -0.000000 0.000000
LeftFoot -20.276949 43.961488 -9.222178
LeftToeBase 15.396849 -0.000000 -0.000000
RightUpLeg 12.028737 -20.305913 -6.426241
RightLeg 107.598132 -0.000000 -0.000000
RightFoot 42.890360 -42.024186 -21.129935
RightToeBase 22.560396 -0.000000 -0.000000
3511
root 18.998285 35.957803 -19.319622 -130.853196 55.703843 -171.698564
Spine -31.320506 26.585456 -25.236320
Head -2.072346 -10.804787 2.962993
LeftShoulder -12.722843 -28.239608 15.671613
LeftArm -13.925330 -10.319264 -2.127030
LeftForeArm -10.832101 -0.000000 6.005622
LeftHand -1.748039 -0.000000 4.094541
LeftHandThumb1 -26.253704 0.000000 33.147579
RightShoulder -7.087996 -11.198612 5.870555
RightArm 38.373076 6.985188 68.995186
RightForeArm -27.345577 -0.000000 29.397040
RightHand -9.298925 0.000000 -6.970119
RightHandThumb1 -24.326973 -0.000000 -32.862282
LeftUpLeg -48.505258 27.746977 -32.934423
LeftLeg -6.909607 -0.000000 0.000000
LeftFoot -20.104425 44.030642 -9.121349
LeftToeBase 15.469580 -0.000000 -0.000000
RightUpLeg 11.966059 -20.215158 -6.306446
RightLeg 107.117925 -0.000000 -0.000000
RightFoot 42.709359 -41.976112 -21.020607
RightToeBase 22.565119 -0.000000 -0.000000
3512
root 19.015030 35.966380 -19.260503 -130.693703 55.591879 -171.540396
Spine -30.845385 26.566433 -24.872081
Head -1.792070 -11.565625 3.501157
LeftShoulder -12.503027 -28.185389 15.692880
LeftArm -13.217923 -10.504125 -2.193497
LeftForeArm -10.657259 -0.000000 5.703822
LeftHand -1.754786 -0.000000 4.114074
LeftHandThumb1 -26.253704 0.000000 33.147579
RightShoulder -7.001326 -11.099590 6.004407
RightArm 38.027414 6.635187 68.874744
RightForeArm -27.202294 -0.000000 29.178288
RightHand -9.182054 0.000000 -6.862463
RightHandThumb1 -24.326973 -0.000000 -32.862282
LeftUpLeg -48.561440 27.759960 -32.748637
LeftLeg -6.974202 -0.000000 0.000000
LeftFoot -19.939053 44.028363 -9.002495
LeftToeBase 15.517857 -0.000000 -0.000000
RightUpLeg 11.881522 -20.081735 -6.186469
RightLeg 106.606241 -0.000000 -0.000000
RightFoot 42.604728 -42.078713 -20.980043
RightToeBase 22.380169 -0.000000 -0.000000
3513
root 19.033946 35.975146 -19.203640 -130.614533 55.474687 -171.437079
Spine -30.327055 26.554495 -24.512546
Head -1.431203 -12.350298 4.039972
LeftShoulder -12.407146 -28.063343 15.707067
LeftArm -12.251996 -10.907393 -2.330502
LeftForeArm -10.587659 -0.000000 5.306543
LeftHand -1.616124 -0.000000 4.172351
LeftHandThumb1 -26.253704 0.000000 33.147579
RightShoulder -6.915780 -10.936433 6.117046
RightArm 37.572059 6.416571 68.945338
RightForeArm -27.230039 -0.000000 29.049787
RightHand -9.287470 -0.000000 -6.601677
RightHandThumb1 -24.326973 -0.000000 -32.862282
LeftUpLeg -48.485697 27.701950 -32.468184
LeftLeg -7.113586 -0.000000 0.000000
LeftFoot -19.761602 44.129228 -8.956192
LeftToeBase 15.513135 -0.000000 -0.000000
RightUpLeg 11.795464 -19.945935 -6.076634
RightLeg 106.094816 -0.000000 -0.000000
RightFoot 42.396312 -42.059530 -20.938358
RightToeBase 22.371793 -0.000000 -0.000000
3514
root 19.058754 35.987939 -19.140997 -130.426801 55.344849 -171.138069
Spine -29.778155 26.641164 -24.062089
Head -1.021885 -13.099035 4.579408
LeftShoulder -12.327350 -28.034327 15.735488
LeftArm -11.272258 -11.445438 -2.494969
LeftForeArm -10.310401 -0.000000 4.929559
LeftHand -1.476998 -0.000000 4.398982
LeftHandThumb1 -26.253704 0.000000 33.147579
RightShoulder -6.897901 -10.933135 6.316911
RightArm 37.279536 6.227233 68.952362
RightForeArm -27.326164 -0.000000 28.986756
RightHand -9.477762 -0.000000 -6.239975
RightHandThumb1 -24.326973 -0.000000 -32.862282
LeftUpLeg -48.488568 27.799161 -32.172944
LeftLeg -7.178552 -0.000000 0.000000
LeftFoot -19.572427 44.186639 -8.803989
LeftToeBase 15.488122 -0.000000 -0.000000
RightUpLeg 11.663876 -19.723364 -5.819541
RightLeg 105.570542 -0.000000 -0.000000
RightFoot 42.250119 -42.142828 -20.995326
RightToeBase 22.508681 -0.000000 -0.000000
